<?xml version="1.0" encoding="UTF-8" standalone="no"?>
<!DOCTYPE svg PUBLIC "-//W3C//DTD SVG 1.1//EN"
 "http://www.w3.org/Graphics/SVG/1.1/DTD/svg11.dtd">
<svg width="286pt" height="819pt"
 viewBox="0.00 0.00 286.00 818.80" xmlns="http://www.w3.org/2000/svg" xmlns:xlink="http://www.w3.org/1999/xlink">
<g id="graph0" class="graph" transform="scale(1 1) rotate(0) translate(4 814.8)">
<title>g</title>
<polygon fill="white" stroke="transparent" points="-4,4 -4,-814.8 282,-814.8 282,4 -4,4"/>
<g id="clust1" class="cluster">
<title>cluster_1322970774</title>
<polygon fill="#ececec" stroke="black" points="8,-8 8,-802.8 270,-802.8 270,-8 8,-8"/>
<text text-anchor="middle" x="39.71" y="-786.2" font-family="Times New Roman,serif" font-size="14.00">example</text>
</g>
<g id="clust2" class="cluster">
<title>cluster_1944009033</title>
<polygon fill="#d8d8d8" stroke="black" points="16,-583.2 16,-770 262,-770 262,-583.2 16,-583.2"/>
<text text-anchor="middle" x="32.95" y="-753.4" font-family="Times New Roman,serif" font-size="14.00">gui</text>
</g>
<!-- Engine1526836320 -->
<g id="node1" class="node">
<title>Engine1526836320</title>
<polygon fill="#ffffff" stroke="transparent" points="251,-521.6 27,-521.6 27,-255.6 251,-255.6 251,-521.6"/>
<text text-anchor="start" x="32" y="-504" font-family="Times New Roman,serif" font-size="14.00">(C)Engine</text>
<text text-anchor="start" x="32" y="-480" font-family="Times New Roman,serif" font-size="14.00">&#45; &#160;&#160;database: Database [0..1]</text>
<text text-anchor="start" x="32" y="-456" font-family="Times New Roman,serif" font-size="14.00">&#45; &#160;&#160;game: GameDescription [0..1]</text>
<text text-anchor="start" x="32" y="-432" font-family="Times New Roman,serif" font-size="14.00">&#45; &#160;&#160;parser: Parser [0..1]</text>
<text text-anchor="start" x="32" y="-408" font-family="Times New Roman,serif" font-size="14.00">&#45; &#160;&#160;timer: GameTimer [0..1]</text>
<text text-anchor="start" x="32" y="-384" font-family="Times New Roman,serif" font-size="14.00">+ loadSavedGame()</text>
<text text-anchor="start" x="32" y="-360" font-family="Times New Roman,serif" font-size="14.00">+ main(args: String[])</text>
<text text-anchor="start" x="32" y="-336" font-family="Times New Roman,serif" font-size="14.00">+ newGame()</text>
<text text-anchor="start" x="31.65" y="-312" font-family="Times New Roman,serif" font-size="14.00">+ playGame(game: GameDescription)</text>
<text text-anchor="start" x="31.71" y="-288" font-family="Times New Roman,serif" font-size="14.00">&#45; printGameIntro(playerName: String)</text>
<text text-anchor="start" x="32" y="-264" font-family="Times New Roman,serif" font-size="14.00">&#45; saveGame(game: GameDescription)</text>
<polygon fill="black" stroke="black" points="27,-496.6 27,-496.6 251,-496.6 251,-496.6 27,-496.6"/>
<polygon fill="black" stroke="black" points="27,-400.6 27,-400.6 251,-400.6 251,-400.6 27,-400.6"/>
<polygon fill="none" stroke="black" points="27,-255.6 27,-521.6 251,-521.6 251,-255.6 27,-255.6"/>
</g>
<!-- GameTimer1526836320 -->
<g id="node2" class="node">
<title>GameTimer1526836320</title>
<polygon fill="#ffffff" stroke="transparent" points="216.5,-186 61.5,-186 61.5,-16 216.5,-16 216.5,-186"/>
<text text-anchor="start" x="67" y="-168.4" font-family="Times New Roman,serif" font-size="14.00">(C)GameTimer</text>
<text text-anchor="start" x="67" y="-144.4" font-family="Times New Roman,serif" font-size="14.00">&#45; &#160;&#160;running: boolean [1]</text>
<text text-anchor="start" x="66.61" y="-120.4" font-family="Times New Roman,serif" font-size="14.00">&#45; &#160;&#160;secondsElapsed: int [1]</text>
<text text-anchor="start" x="67" y="-96.4" font-family="Times New Roman,serif" font-size="14.00">+ resetTimer()</text>
<text text-anchor="start" x="67" y="-72.4" font-family="Times New Roman,serif" font-size="14.00">+ resumeTimer()</text>
<text text-anchor="start" x="67" y="-48.4" font-family="Times New Roman,serif" font-size="14.00">+ run()</text>
<text text-anchor="start" x="67" y="-24.4" font-family="Times New Roman,serif" font-size="14.00">+ stopTimer()</text>
<polygon fill="black" stroke="black" points="62,-161 62,-161 217,-161 217,-161 62,-161"/>
<polygon fill="black" stroke="black" points="62,-113 62,-113 217,-113 217,-113 62,-113"/>
<polygon fill="none" stroke="black" points="61.5,-16 61.5,-186 216.5,-186 216.5,-16 61.5,-16"/>
</g>
<!-- Engine1526836320&#45;&gt;GameTimer1526836320 -->
<g id="edge1" class="edge">
<title>Engine1526836320&#45;&gt;GameTimer1526836320</title>
<path fill="none" stroke="black" d="M139,-255.25C139,-235.34 139,-215.15 139,-196.25"/>
<polygon fill="black" stroke="black" points="142.5,-196.2 139,-186.2 135.5,-196.2 142.5,-196.2"/>
<text text-anchor="middle" x="154.16" y="-225" font-family="Times New Roman,serif" font-size="14.00">timer</text>
<text text-anchor="middle" x="154.16" y="-208.2" font-family="Times New Roman,serif" font-size="14.00">[0..1]</text>
</g>
<!-- MenuSwing1873475245 -->
<g id="node3" class="node">
<title>MenuSwing1873475245</title>
<polygon fill="#ffffff" stroke="transparent" points="253.5,-737.2 24.5,-737.2 24.5,-591.2 253.5,-591.2 253.5,-737.2"/>
<text text-anchor="start" x="30" y="-719.6" font-family="Times New Roman,serif" font-size="14.00">(C)MenuSwing</text>
<text text-anchor="start" x="30" y="-695.6" font-family="Times New Roman,serif" font-size="14.00">&#45; &#160;&#160;engine: Engine [0..1]</text>
<text text-anchor="start" x="29.67" y="-671.6" font-family="Times New Roman,serif" font-size="14.00">&#45; &#160;&#160;execute: CommandsExecution [0..1]</text>
<text text-anchor="start" x="30" y="-647.6" font-family="Times New Roman,serif" font-size="14.00">&#45; &#160;&#160;loadGameButton: JButton [0..1]</text>
<text text-anchor="start" x="30" y="-623.6" font-family="Times New Roman,serif" font-size="14.00">&#45; &#160;&#160;newGameButton: JButton [0..1]</text>
<text text-anchor="start" x="30" y="-599.6" font-family="Times New Roman,serif" font-size="14.00">+ startMenu()</text>
<polygon fill="black" stroke="black" points="25,-712.2 25,-712.2 254,-712.2 254,-712.2 25,-712.2"/>
<polygon fill="black" stroke="black" points="25,-616.2 25,-616.2 254,-616.2 254,-616.2 25,-616.2"/>
<polygon fill="none" stroke="black" points="24.5,-591.2 24.5,-737.2 253.5,-737.2 253.5,-591.2 24.5,-591.2"/>
</g>
<!-- MenuSwing1873475245&#45;&gt;Engine1526836320 -->
<g id="edge2" class="edge">
<title>MenuSwing1873475245&#45;&gt;Engine1526836320</title>
<path fill="none" stroke="black" d="M139,-590.96C139,-572.66 139,-552.36 139,-531.89"/>
<polygon fill="black" stroke="black" points="142.5,-531.84 139,-521.84 135.5,-531.84 142.5,-531.84"/>
<text text-anchor="middle" x="157.66" y="-560.6" font-family="Times New Roman,serif" font-size="14.00">engine</text>
<text text-anchor="middle" x="157.66" y="-543.8" font-family="Times New Roman,serif" font-size="14.00">[0..1]</text>
</g>
</g>
</svg>
