<?xml version="1.0" encoding="UTF-8" standalone="no"?>
<!DOCTYPE svg PUBLIC "-//W3C//DTD SVG 1.1//EN"
 "http://www.w3.org/Graphics/SVG/1.1/DTD/svg11.dtd">
<!-- Generated by graphviz version 2.44.1 (20200629.0846)
 -->
<!-- Title: g Pages: 1 -->
<svg width="1277pt" height="2149pt"
 viewBox="0.00 0.00 1277.00 2148.60" xmlns="http://www.w3.org/2000/svg" xmlns:xlink="http://www.w3.org/1999/xlink">
<g id="graph0" class="graph" transform="scale(1 1) rotate(0) translate(4 2144.6)">
<title>g</title>
<polygon fill="white" stroke="transparent" points="-4,4 -4,-2144.6 1273,-2144.6 1273,4 -4,4"/>
<g id="clust1" class="cluster">
<title>cluster_1322970774</title>
<polygon fill="#ececec" stroke="black" points="8,-8 8,-2132.6 1261,-2132.6 1261,-8 8,-8"/>
<text text-anchor="middle" x="39.71" y="-2116" font-family="Times New Roman,serif" font-size="14.00">example</text>
</g>
<g id="clust3" class="cluster">
<title>cluster_134346434</title>
<polygon fill="#d8d8d8" stroke="black" points="700,-16 700,-969.2 1253,-969.2 1253,-16 700,-16"/>
<text text-anchor="middle" x="720.05" y="-952.6" font-family="Times New Roman,serif" font-size="14.00">type</text>
</g>
<g id="clust4" class="cluster">
<title>cluster_1944009033</title>
<polygon fill="#d8d8d8" stroke="black" points="806,-1885.8 806,-2072.6 1052,-2072.6 1052,-1885.8 806,-1885.8"/>
<text text-anchor="middle" x="822.95" y="-2056" font-family="Times New Roman,serif" font-size="14.00">gui</text>
</g>
<g id="clust2" class="cluster">
<title>cluster_117504317</title>
<polygon fill="#d8d8d8" stroke="black" points="16,-566.4 16,-1183.6 678,-1183.6 678,-566.4 16,-566.4"/>
<text text-anchor="middle" x="41.88" y="-1167" font-family="Times New Roman,serif" font-size="14.00">games</text>
</g>
<g id="clust5" class="cluster">
<title>cluster_1944014954</title>
<polygon fill="#d8d8d8" stroke="black" points="20,-148 20,-262.8 272,-262.8 272,-148 20,-148"/>
<text text-anchor="middle" x="36.55" y="-246.2" font-family="Times New Roman,serif" font-size="14.00">api</text>
</g>
<g id="clust6" class="cluster">
<title>cluster_564401793</title>
<polygon fill="#d8d8d8" stroke="black" points="280,-16 280,-394.8 644,-394.8 644,-16 280,-16"/>
<text text-anchor="middle" x="312.1" y="-378.2" font-family="Times New Roman,serif" font-size="14.00">database</text>
</g>
<!-- Engine1526836320 -->
<g id="node1" class="node">
<title>Engine1526836320</title>
<polygon fill="#ffffff" stroke="transparent" points="1041,-1764.2 817,-1764.2 817,-1498.2 1041,-1498.2 1041,-1764.2"/>
<text text-anchor="start" x="822" y="-1746.6" font-family="Times New Roman,serif" font-size="14.00">(C)Engine</text>
<text text-anchor="start" x="822" y="-1722.6" font-family="Times New Roman,serif" font-size="14.00">&#45; &#160;&#160;database: Database [0..1]</text>
<text text-anchor="start" x="822" y="-1698.6" font-family="Times New Roman,serif" font-size="14.00">&#45; &#160;&#160;game: GameDescription [0..1]</text>
<text text-anchor="start" x="822" y="-1674.6" font-family="Times New Roman,serif" font-size="14.00">&#45; &#160;&#160;parser: Parser [0..1]</text>
<text text-anchor="start" x="822" y="-1650.6" font-family="Times New Roman,serif" font-size="14.00">&#45; &#160;&#160;timer: GameTimer [0..1]</text>
<text text-anchor="start" x="822" y="-1626.6" font-family="Times New Roman,serif" font-size="14.00">+ loadSavedGame()</text>
<text text-anchor="start" x="822" y="-1602.6" font-family="Times New Roman,serif" font-size="14.00">+ main(args: String[])</text>
<text text-anchor="start" x="822" y="-1578.6" font-family="Times New Roman,serif" font-size="14.00">+ newGame()</text>
<text text-anchor="start" x="821.65" y="-1554.6" font-family="Times New Roman,serif" font-size="14.00">+ playGame(game: GameDescription)</text>
<text text-anchor="start" x="821.71" y="-1530.6" font-family="Times New Roman,serif" font-size="14.00">&#45; printGameIntro(playerName: String)</text>
<text text-anchor="start" x="822" y="-1506.6" font-family="Times New Roman,serif" font-size="14.00">&#45; saveGame(game: GameDescription)</text>
<polygon fill="black" stroke="black" points="817,-1739.2 817,-1739.2 1041,-1739.2 1041,-1739.2 817,-1739.2"/>
<polygon fill="black" stroke="black" points="817,-1643.2 817,-1643.2 1041,-1643.2 1041,-1643.2 817,-1643.2"/>
<polygon fill="none" stroke="black" points="817,-1498.2 817,-1764.2 1041,-1764.2 1041,-1498.2 817,-1498.2"/>
</g>
<!-- GameDescription1526836320 -->
<g id="node2" class="node">
<title>GameDescription1526836320</title>
<polygon fill="#ffffff" stroke="transparent" points="1179,-1428.6 679,-1428.6 679,-1210.6 1179,-1210.6 1179,-1428.6"/>
<text text-anchor="start" x="684" y="-1411" font-family="Times New Roman,serif" font-size="14.00">(C)GameDescription</text>
<text text-anchor="start" x="684" y="-1387" font-family="Times New Roman,serif" font-size="14.00">&#45; &#160;&#160;commands: List&lt;Command&gt; [0..*]</text>
<text text-anchor="start" x="684" y="-1363" font-family="Times New Roman,serif" font-size="14.00">&#45; &#160;&#160;currentRoom: Room [0..1]</text>
<text text-anchor="start" x="684" y="-1339" font-family="Times New Roman,serif" font-size="14.00">&#45; &#160;&#160;gameId: int [1]</text>
<text text-anchor="start" x="684" y="-1315" font-family="Times New Roman,serif" font-size="14.00">&#45; &#160;&#160;inventory: List&lt;AdvObject&gt; [0..*]</text>
<text text-anchor="start" x="684" y="-1291" font-family="Times New Roman,serif" font-size="14.00">&#45; &#160;&#160;rooms: List&lt;Room&gt; [0..*]</text>
<text text-anchor="start" x="684" y="-1267" font-family="Times New Roman,serif" font-size="14.00">&#45; &#160;&#160;timeElapsed: int [1]</text>
<text text-anchor="start" x="684" y="-1243" font-family="Times New Roman,serif" font-size="14.00">+ init()</text>
<text text-anchor="start" x="683.82" y="-1219" font-family="Times New Roman,serif" font-size="14.00">+ nextMove(p: ParserOutput, out: PrintStream, timer: GameTimer, database: Database)</text>
<polygon fill="black" stroke="black" points="679,-1403.6 679,-1403.6 1179,-1403.6 1179,-1403.6 679,-1403.6"/>
<polygon fill="black" stroke="black" points="679,-1259.6 679,-1259.6 1179,-1259.6 1179,-1259.6 679,-1259.6"/>
<polygon fill="none" stroke="black" points="679,-1210.6 679,-1428.6 1179,-1428.6 1179,-1210.6 679,-1210.6"/>
</g>
<!-- Engine1526836320&#45;&gt;GameDescription1526836320 -->
<g id="edge3" class="edge">
<title>Engine1526836320&#45;&gt;GameDescription1526836320</title>
<path fill="none" stroke="black" d="M929,-1498C929,-1478.41 929,-1458.32 929,-1439.03"/>
<polygon fill="black" stroke="black" points="932.5,-1439.03 929,-1429.03 925.5,-1439.03 932.5,-1439.03"/>
<text text-anchor="middle" x="944.16" y="-1467.6" font-family="Times New Roman,serif" font-size="14.00">game</text>
<text text-anchor="middle" x="944.16" y="-1450.8" font-family="Times New Roman,serif" font-size="14.00">[0..1]</text>
</g>
<!-- StarshipExodus817824691 -->
<g id="node5" class="node">
<title>StarshipExodus817824691</title>
<polygon fill="#ffffff" stroke="transparent" points="670,-1150.8 170,-1150.8 170,-1028.8 670,-1028.8 670,-1150.8"/>
<text text-anchor="start" x="175" y="-1133.2" font-family="Times New Roman,serif" font-size="14.00">(C)StarshipExodus</text>
<text text-anchor="start" x="175" y="-1109.2" font-family="Times New Roman,serif" font-size="14.00">&#45; &#160;&#160;bossKilled: boolean [1]</text>
<text text-anchor="start" x="175" y="-1085.2" font-family="Times New Roman,serif" font-size="14.00">&#45; &#160;&#160;execute: CommandsExecution [0..1]</text>
<text text-anchor="start" x="175" y="-1061.2" font-family="Times New Roman,serif" font-size="14.00">+ init()</text>
<text text-anchor="start" x="174.82" y="-1037.2" font-family="Times New Roman,serif" font-size="14.00">+ nextMove(p: ParserOutput, out: PrintStream, timer: GameTimer, database: Database)</text>
<polygon fill="black" stroke="black" points="170,-1125.8 170,-1125.8 670,-1125.8 670,-1125.8 170,-1125.8"/>
<polygon fill="black" stroke="black" points="170,-1077.8 170,-1077.8 670,-1077.8 670,-1077.8 170,-1077.8"/>
<polygon fill="none" stroke="black" points="170,-1028.8 170,-1150.8 670,-1150.8 670,-1028.8 170,-1028.8"/>
</g>
<!-- GameDescription1526836320&#45;&gt;StarshipExodus817824691 -->
<g id="edge8" class="edge">
<title>GameDescription1526836320&#45;&gt;StarshipExodus817824691</title>
<path fill="none" stroke="black" d="M678.41,-1206.45C635.58,-1187.28 592.6,-1168.05 554.33,-1150.92"/>
<polygon fill="none" stroke="black" points="676.99,-1209.65 687.54,-1210.54 679.85,-1203.26 676.99,-1209.65"/>
</g>
<!-- AdvObject2051418104 -->
<g id="node6" class="node">
<title>AdvObject2051418104</title>
<polygon fill="#ffffff" stroke="transparent" points="963,-362 737,-362 737,-24 963,-24 963,-362"/>
<text text-anchor="start" x="742" y="-344.4" font-family="Times New Roman,serif" font-size="14.00">(C)AdvObject</text>
<text text-anchor="start" x="742" y="-320.4" font-family="Times New Roman,serif" font-size="14.00">&#45; &#160;&#160;alias: Set&lt;String&gt; [0..*]</text>
<text text-anchor="start" x="742" y="-296.4" font-family="Times New Roman,serif" font-size="14.00">&#45; &#160;&#160;container: boolean [1]</text>
<text text-anchor="start" x="742" y="-272.4" font-family="Times New Roman,serif" font-size="14.00">&#45; &#160;&#160;containerId: int [1]</text>
<text text-anchor="start" x="742" y="-248.4" font-family="Times New Roman,serif" font-size="14.00">&#45; &#160;&#160;description: String [0..1]</text>
<text text-anchor="start" x="742" y="-224.4" font-family="Times New Roman,serif" font-size="14.00">&#45; &#160;&#160;id: int [1]</text>
<text text-anchor="start" x="742" y="-200.4" font-family="Times New Roman,serif" font-size="14.00">&#45; &#160;&#160;name: String [0..1]</text>
<text text-anchor="start" x="741.6" y="-176.4" font-family="Times New Roman,serif" font-size="14.00">&#45; &#160;&#160;objectsList: List&lt;AdvObject&gt; [0..*]</text>
<text text-anchor="start" x="742" y="-152.4" font-family="Times New Roman,serif" font-size="14.00">&#45; &#160;&#160;open: boolean [1]</text>
<text text-anchor="start" x="742" y="-128.4" font-family="Times New Roman,serif" font-size="14.00">&#45; &#160;&#160;openable: boolean [1]</text>
<text text-anchor="start" x="742" y="-104.4" font-family="Times New Roman,serif" font-size="14.00">&#45; &#160;&#160;pickupable: boolean [1]</text>
<text text-anchor="start" x="742" y="-80.4" font-family="Times New Roman,serif" font-size="14.00">&#45; &#160;&#160;push: boolean [1]</text>
<text text-anchor="start" x="742" y="-56.4" font-family="Times New Roman,serif" font-size="14.00">&#45; &#160;&#160;pushable: boolean [1]</text>
<text text-anchor="start" x="742" y="-32.4" font-family="Times New Roman,serif" font-size="14.00">&#45; &#160;&#160;used: boolean [1]</text>
<polygon fill="black" stroke="black" points="737,-337 737,-337 963,-337 963,-337 737,-337"/>
<polygon fill="none" stroke="black" points="737,-24 737,-362 963,-362 963,-24 737,-24"/>
</g>
<!-- GameDescription1526836320&#45;&gt;AdvObject2051418104 -->
<g id="edge4" class="edge">
<title>GameDescription1526836320&#45;&gt;AdvObject2051418104</title>
<path fill="none" stroke="black" d="M849.06,-1210.51C783.46,-1121.82 701.34,-1010.8 701.34,-1010.8 701.34,-1010.8 700,-969.2 700,-969.2 700,-969.2 700,-454.4 700,-454.4 700,-454.4 721.42,-417.22 748.06,-370.96"/>
<polygon fill="black" stroke="black" points="751.14,-372.64 753.1,-362.23 745.07,-369.14 751.14,-372.64"/>
<text text-anchor="middle" x="727.83" y="-998.2" font-family="Times New Roman,serif" font-size="14.00">inventory</text>
<text text-anchor="middle" x="727.83" y="-981.4" font-family="Times New Roman,serif" font-size="14.00">[0..*]</text>
</g>
<!-- Command2051418104 -->
<g id="node7" class="node">
<title>Command2051418104</title>
<polygon fill="#ffffff" stroke="transparent" points="1244.5,-756.4 1067.5,-756.4 1067.5,-634.4 1244.5,-634.4 1244.5,-756.4"/>
<text text-anchor="start" x="1073" y="-738.8" font-family="Times New Roman,serif" font-size="14.00">(C)Command</text>
<text text-anchor="start" x="1073" y="-714.8" font-family="Times New Roman,serif" font-size="14.00">&#45; &#160;&#160;alias: Set&lt;String&gt; [0..*]</text>
<text text-anchor="start" x="1073" y="-690.8" font-family="Times New Roman,serif" font-size="14.00">&#45; &#160;&#160;name: String [0..1]</text>
<text text-anchor="start" x="1072.71" y="-666.8" font-family="Times New Roman,serif" font-size="14.00">&#45; &#160;&#160;type: CommandType [0..1]</text>
<text text-anchor="start" x="1073" y="-642.8" font-family="Times New Roman,serif" font-size="14.00">+ addAlias(trim: String)</text>
<polygon fill="black" stroke="black" points="1068,-731.4 1068,-731.4 1245,-731.4 1245,-731.4 1068,-731.4"/>
<polygon fill="black" stroke="black" points="1068,-659.4 1068,-659.4 1245,-659.4 1245,-659.4 1068,-659.4"/>
<polygon fill="none" stroke="black" points="1067.5,-634.4 1067.5,-756.4 1244.5,-756.4 1244.5,-634.4 1067.5,-634.4"/>
</g>
<!-- GameDescription1526836320&#45;&gt;Command2051418104 -->
<g id="edge5" class="edge">
<title>GameDescription1526836320&#45;&gt;Command2051418104</title>
<path fill="none" stroke="black" d="M1018.6,-1210.59C1031.77,-1194.73 1041,-1183.6 1041,-1183.6 1041,-1183.6 1107.64,-901.29 1139.46,-766.47"/>
<polygon fill="black" stroke="black" points="1142.89,-767.17 1141.78,-756.63 1136.08,-765.56 1142.89,-767.17"/>
<text text-anchor="middle" x="1106.33" y="-1094" font-family="Times New Roman,serif" font-size="14.00">commands</text>
<text text-anchor="middle" x="1106.33" y="-1077.2" font-family="Times New Roman,serif" font-size="14.00">[0..*]</text>
</g>
<!-- Room2051418104 -->
<g id="node8" class="node">
<title>Room2051418104</title>
<polygon fill="#ffffff" stroke="transparent" points="1049.5,-936.4 708.5,-936.4 708.5,-454.4 1049.5,-454.4 1049.5,-936.4"/>
<text text-anchor="start" x="714" y="-918.8" font-family="Times New Roman,serif" font-size="14.00">(C)Room</text>
<text text-anchor="start" x="714" y="-894.8" font-family="Times New Roman,serif" font-size="14.00">&#45; &#160;&#160;accessible: boolean [1]</text>
<text text-anchor="start" x="714" y="-870.8" font-family="Times New Roman,serif" font-size="14.00">&#45; &#160;&#160;description: String [0..1]</text>
<text text-anchor="start" x="714" y="-846.8" font-family="Times New Roman,serif" font-size="14.00">&#45; &#160;&#160;east: Room [0..1]</text>
<text text-anchor="start" x="714" y="-822.8" font-family="Times New Roman,serif" font-size="14.00">&#45; &#160;&#160;eastId: int [1]</text>
<text text-anchor="start" x="714" y="-798.8" font-family="Times New Roman,serif" font-size="14.00">&#45; &#160;&#160;id: int [1]</text>
<text text-anchor="start" x="714" y="-774.8" font-family="Times New Roman,serif" font-size="14.00">&#45; &#160;&#160;inaccessibleMessage: String [0..1]</text>
<text text-anchor="start" x="714" y="-750.8" font-family="Times New Roman,serif" font-size="14.00">&#45; &#160;&#160;intro: String [0..1]</text>
<text text-anchor="start" x="714" y="-726.8" font-family="Times New Roman,serif" font-size="14.00">&#45; &#160;&#160;look: String [0..1]</text>
<text text-anchor="start" x="714" y="-702.8" font-family="Times New Roman,serif" font-size="14.00">&#45; &#160;&#160;name: String [0..1]</text>
<text text-anchor="start" x="714" y="-678.8" font-family="Times New Roman,serif" font-size="14.00">&#45; &#160;&#160;north: Room [0..1]</text>
<text text-anchor="start" x="714" y="-654.8" font-family="Times New Roman,serif" font-size="14.00">&#45; &#160;&#160;northId: int [1]</text>
<text text-anchor="start" x="714" y="-630.8" font-family="Times New Roman,serif" font-size="14.00">&#45; &#160;&#160;objects: List&lt;AdvObject&gt; [0..*]</text>
<text text-anchor="start" x="714" y="-606.8" font-family="Times New Roman,serif" font-size="14.00">&#45; &#160;&#160;south: Room [0..1]</text>
<text text-anchor="start" x="714" y="-582.8" font-family="Times New Roman,serif" font-size="14.00">&#45; &#160;&#160;southId: int [1]</text>
<text text-anchor="start" x="714" y="-558.8" font-family="Times New Roman,serif" font-size="14.00">&#45; &#160;&#160;visible: boolean [1]</text>
<text text-anchor="start" x="714" y="-534.8" font-family="Times New Roman,serif" font-size="14.00">&#45; &#160;&#160;visited: boolean [1]</text>
<text text-anchor="start" x="714" y="-510.8" font-family="Times New Roman,serif" font-size="14.00">&#45; &#160;&#160;west: Room [0..1]</text>
<text text-anchor="start" x="714" y="-486.8" font-family="Times New Roman,serif" font-size="14.00">&#45; &#160;&#160;westId: int [1]</text>
<text text-anchor="start" x="713.66" y="-462.8" font-family="Times New Roman,serif" font-size="14.00">+ findRoomById(rooms: List&lt;Room&gt;, roomId: int): Room</text>
<polygon fill="black" stroke="black" points="709,-911.4 709,-911.4 1050,-911.4 1050,-911.4 709,-911.4"/>
<polygon fill="black" stroke="black" points="709,-479.4 709,-479.4 1050,-479.4 1050,-479.4 709,-479.4"/>
<polygon fill="none" stroke="black" points="708.5,-454.4 708.5,-936.4 1049.5,-936.4 1049.5,-454.4 708.5,-454.4"/>
</g>
<!-- GameDescription1526836320&#45;&gt;Room2051418104 -->
<g id="edge6" class="edge">
<title>GameDescription1526836320&#45;&gt;Room2051418104</title>
<path fill="none" stroke="black" d="M925.2,-1210.58C921.69,-1110.56 917,-977.2 917,-977.2 917,-977.2 915.41,-965.44 912.88,-946.72"/>
<polygon fill="black" stroke="black" points="916.32,-946.11 911.52,-936.67 909.39,-947.05 916.32,-946.11"/>
<text text-anchor="middle" x="960.93" y="-1094" font-family="Times New Roman,serif" font-size="14.00">currentRoom</text>
<text text-anchor="middle" x="960.93" y="-1077.2" font-family="Times New Roman,serif" font-size="14.00">[0..1]</text>
</g>
<!-- GameDescription1526836320&#45;&gt;Room2051418104 -->
<g id="edge7" class="edge">
<title>GameDescription1526836320&#45;&gt;Room2051418104</title>
<path fill="none" stroke="black" d="M987.4,-1210.59C995.98,-1194.73 1002,-1183.6 1002,-1183.6 1002,-1183.6 1002,-1028.8 1002,-1028.8 1002,-1028.8 989.01,-993.69 971.47,-946.29"/>
<polygon fill="black" stroke="black" points="974.65,-944.81 967.9,-936.65 968.09,-947.24 974.65,-944.81"/>
<text text-anchor="middle" x="1019.5" y="-1094" font-family="Times New Roman,serif" font-size="14.00">rooms</text>
<text text-anchor="middle" x="1019.5" y="-1077.2" font-family="Times New Roman,serif" font-size="14.00">[0..*]</text>
</g>
<!-- Utils1526836320 -->
<g id="node3" class="node">
<title>Utils1526836320</title>
<polygon fill="#ffffff" stroke="transparent" points="616,-2099.8 196,-2099.8 196,-1833.8 616,-1833.8 616,-2099.8"/>
<text text-anchor="start" x="201" y="-2082.2" font-family="Times New Roman,serif" font-size="14.00">(C)Utils</text>
<text text-anchor="start" x="201" y="-2058.2" font-family="Times New Roman,serif" font-size="14.00">+ deserializeObject(data: byte[]): Object</text>
<text text-anchor="start" x="201" y="-2034.2" font-family="Times New Roman,serif" font-size="14.00">+ findObjectById(objectsList: List&lt;AdvObject&gt;, id: int): AdvObject</text>
<text text-anchor="start" x="201" y="-2010.2" font-family="Times New Roman,serif" font-size="14.00">+ loadFileListInSet(file: File): Set&lt;String&gt;</text>
<text text-anchor="start" x="200.8" y="-1986.2" font-family="Times New Roman,serif" font-size="14.00">+ loadObjectsFromFile(filePath: String, objectType: Class&lt;T&gt;): List&lt;T&gt;</text>
<text text-anchor="start" x="201" y="-1962.2" font-family="Times New Roman,serif" font-size="14.00">+ parseString(string: String, stopwords: Set&lt;String&gt;): List&lt;String&gt;</text>
<text text-anchor="start" x="201" y="-1938.2" font-family="Times New Roman,serif" font-size="14.00">+ printFromFile(filename: String)</text>
<text text-anchor="start" x="201" y="-1914.2" font-family="Times New Roman,serif" font-size="14.00">+ printFromFilePlaceholder(filename: String, placeholder: String)</text>
<text text-anchor="start" x="201" y="-1890.2" font-family="Times New Roman,serif" font-size="14.00">+ printGameTime(totalSeconds: int): String</text>
<text text-anchor="start" x="201" y="-1866.2" font-family="Times New Roman,serif" font-size="14.00">+ serializeObject(obj: Object): byte[]</text>
<text text-anchor="start" x="201" y="-1842.2" font-family="Times New Roman,serif" font-size="14.00">+ waitForEnter()</text>
<polygon fill="black" stroke="black" points="196,-2074.8 196,-2074.8 616,-2074.8 616,-2074.8 196,-2074.8"/>
<polygon fill="none" stroke="black" points="196,-1833.8 196,-2099.8 616,-2099.8 616,-1833.8 196,-1833.8"/>
</g>
<!-- CommandsExecution817824691 -->
<g id="node4" class="node">
<title>CommandsExecution817824691</title>
<polygon fill="#ffffff" stroke="transparent" points="670,-816.4 24,-816.4 24,-574.4 670,-574.4 670,-816.4"/>
<text text-anchor="start" x="29" y="-798.8" font-family="Times New Roman,serif" font-size="14.00">(C)CommandsExecution</text>
<text text-anchor="start" x="29" y="-774.8" font-family="Times New Roman,serif" font-size="14.00">&#45; &#160;&#160;alienKillled: boolean [1]</text>
<text text-anchor="start" x="29" y="-750.8" font-family="Times New Roman,serif" font-size="14.00">+ attackBoss(bossKilled: boolean, room: Room, out: PrintStream)</text>
<text text-anchor="start" x="29" y="-726.8" font-family="Times New Roman,serif" font-size="14.00">+ end(out: PrintStream, totalGameTime: int)</text>
<text text-anchor="start" x="29" y="-702.8" font-family="Times New Roman,serif" font-size="14.00">+ openItem(object: AdvObject, out: PrintStream)</text>
<text text-anchor="start" x="29" y="-678.8" font-family="Times New Roman,serif" font-size="14.00">+ pickItem(object: AdvObject, out: PrintStream, inventory: List&lt;AdvObject&gt;, currentRoom: Room)</text>
<text text-anchor="start" x="29" y="-654.8" font-family="Times New Roman,serif" font-size="14.00">+ showHelp(): JDialog</text>
<text text-anchor="start" x="29" y="-630.8" font-family="Times New Roman,serif" font-size="14.00">+ showMap()</text>
<text text-anchor="start" x="29" y="-606.8" font-family="Times New Roman,serif" font-size="14.00">+ showNotes()</text>
<text text-anchor="start" x="28.94" y="-582.8" font-family="Times New Roman,serif" font-size="14.00">+ useItem(object: AdvObject, out: PrintStream, timer: GameTimer, game: GameDescription, database: Database)</text>
<polygon fill="black" stroke="black" points="24,-791.4 24,-791.4 670,-791.4 670,-791.4 24,-791.4"/>
<polygon fill="black" stroke="black" points="24,-767.4 24,-767.4 670,-767.4 670,-767.4 24,-767.4"/>
<polygon fill="none" stroke="black" points="24,-574.4 24,-816.4 670,-816.4 670,-574.4 24,-574.4"/>
</g>
<!-- WeatherApi1873469324 -->
<g id="node10" class="node">
<title>WeatherApi1873469324</title>
<polygon fill="#ffffff" stroke="transparent" points="263.5,-230 28.5,-230 28.5,-156 263.5,-156 263.5,-230"/>
<text text-anchor="start" x="34" y="-212.4" font-family="Times New Roman,serif" font-size="14.00">(C)WeatherApi</text>
<text text-anchor="start" x="34" y="-188.4" font-family="Times New Roman,serif" font-size="14.00">&#45; &#160;&#160;city: String [0..1]</text>
<text text-anchor="start" x="33.51" y="-164.4" font-family="Times New Roman,serif" font-size="14.00">+ getWeatherData(city: String): boolean</text>
<polygon fill="black" stroke="black" points="29,-205 29,-205 264,-205 264,-205 29,-205"/>
<polygon fill="black" stroke="black" points="29,-181 29,-181 264,-181 264,-181 29,-181"/>
<polygon fill="none" stroke="black" points="28.5,-156 28.5,-230 263.5,-230 263.5,-156 28.5,-156"/>
</g>
<!-- CommandsExecution817824691&#45;&gt;WeatherApi1873469324 -->
<g id="edge2" class="edge">
<title>CommandsExecution817824691&#45;&gt;WeatherApi1873469324</title>
<path fill="none" stroke="black" d="M288.03,-574.09C255.06,-506.83 220.55,-436.4 220.55,-436.4 220.55,-436.4 181.76,-310.26 160.14,-239.97"/>
<polygon fill="black" stroke="black" points="163.36,-238.56 157.08,-230.03 156.67,-240.62 163.36,-238.56"/>
<text text-anchor="middle" x="306.73" y="-415.4" font-family="Times New Roman,serif" font-size="14.00">useItem() &#45;&gt; getWeatherData()</text>
</g>
<!-- Database2023703369 -->
<g id="node11" class="node">
<title>Database2023703369</title>
<polygon fill="#ffffff" stroke="transparent" points="636,-362 288,-362 288,-24 636,-24 636,-362"/>
<text text-anchor="start" x="293" y="-344.4" font-family="Times New Roman,serif" font-size="14.00">(C)Database</text>
<text text-anchor="start" x="293" y="-320.4" font-family="Times New Roman,serif" font-size="14.00">&#45; &#160;&#160;conn: Connection [0..1]</text>
<text text-anchor="start" x="293" y="-296.4" font-family="Times New Roman,serif" font-size="14.00">+ cleanEmptyGames()</text>
<text text-anchor="start" x="293" y="-272.4" font-family="Times New Roman,serif" font-size="14.00">+ closeDatabase()</text>
<text text-anchor="start" x="293" y="-248.4" font-family="Times New Roman,serif" font-size="14.00">+ deleteGame(id: int)</text>
<text text-anchor="start" x="293" y="-224.4" font-family="Times New Roman,serif" font-size="14.00">+ dropTable()</text>
<text text-anchor="start" x="293" y="-200.4" font-family="Times New Roman,serif" font-size="14.00">+ getPlayerName(id: int): String</text>
<text text-anchor="start" x="292.64" y="-176.4" font-family="Times New Roman,serif" font-size="14.00">+ insertGame(game: GameDescription, playerName: String)</text>
<text text-anchor="start" x="293" y="-152.4" font-family="Times New Roman,serif" font-size="14.00">+ loadGame(id: int): GameDescription</text>
<text text-anchor="start" x="293" y="-128.4" font-family="Times New Roman,serif" font-size="14.00">+ printAllGames(): boolean</text>
<text text-anchor="start" x="293" y="-104.4" font-family="Times New Roman,serif" font-size="14.00">+ selectAllGames(): List&lt;GameRecord&gt;</text>
<text text-anchor="start" x="293" y="-80.4" font-family="Times New Roman,serif" font-size="14.00">+ selectGame(id: int): GameRecord</text>
<text text-anchor="start" x="293" y="-56.4" font-family="Times New Roman,serif" font-size="14.00">+ updateGame(game: GameDescription)</text>
<text text-anchor="start" x="293" y="-32.4" font-family="Times New Roman,serif" font-size="14.00">&#45; updateGameId(game: GameDescription)</text>
<polygon fill="black" stroke="black" points="288,-337 288,-337 636,-337 636,-337 288,-337"/>
<polygon fill="black" stroke="black" points="288,-313 288,-313 636,-313 636,-313 288,-313"/>
<polygon fill="none" stroke="black" points="288,-24 288,-362 636,-362 636,-24 288,-24"/>
</g>
<!-- CommandsExecution817824691&#45;&gt;Database2023703369 -->
<g id="edge1" class="edge">
<title>CommandsExecution817824691&#45;&gt;Database2023703369</title>
<path fill="none" stroke="black" d="M370.51,-574.11C386.21,-493.79 404,-402.8 404,-402.8 404,-402.8 407.44,-390.43 412.63,-371.72"/>
<polygon fill="black" stroke="black" points="416.02,-372.62 415.32,-362.05 409.27,-370.74 416.02,-372.62"/>
<text text-anchor="middle" x="478.68" y="-415.4" font-family="Times New Roman,serif" font-size="14.00">useItem() &#45;&gt; deleteGame()</text>
</g>
<!-- StarshipExodus817824691&#45;&gt;CommandsExecution817824691 -->
<g id="edge11" class="edge">
<title>StarshipExodus817824691&#45;&gt;CommandsExecution817824691</title>
<path fill="none" stroke="black" d="M366.08,-1028.5C356.89,-1018.23 350.25,-1010.8 350.25,-1010.8 350.25,-1010.8 349.24,-913.24 348.35,-826.81"/>
<polygon fill="black" stroke="black" points="351.85,-826.57 348.24,-816.61 344.85,-826.64 351.85,-826.57"/>
<text text-anchor="middle" x="371.37" y="-998.2" font-family="Times New Roman,serif" font-size="14.00">execute</text>
<text text-anchor="middle" x="371.37" y="-981.4" font-family="Times New Roman,serif" font-size="14.00">[0..1]</text>
</g>
<!-- StarshipExodus817824691&#45;&gt;Room2051418104 -->
<g id="edge12" class="edge">
<title>StarshipExodus817824691&#45;&gt;Room2051418104</title>
<path fill="none" stroke="black" d="M670.01,-1029.74C672.6,-1029.13 674,-1028.8 674,-1028.8 674,-1028.8 759,-1010.8 759,-1010.8 759,-1010.8 769.15,-984.22 783.54,-946.51"/>
<polygon fill="black" stroke="black" points="786.99,-947.28 787.29,-936.69 780.45,-944.78 786.99,-947.28"/>
<text text-anchor="middle" x="841.82" y="-989.8" font-family="Times New Roman,serif" font-size="14.00">init() &#45;&gt; findRoomById()</text>
</g>
<!-- Room2051418104&#45;&gt;AdvObject2051418104 -->
<g id="edge10" class="edge">
<title>Room2051418104&#45;&gt;AdvObject2051418104</title>
<path fill="none" stroke="black" d="M865.07,-454.09C863.48,-426.54 861.87,-398.82 860.33,-372.29"/>
<polygon fill="black" stroke="black" points="863.82,-371.96 859.75,-362.18 856.83,-372.36 863.82,-371.96"/>
<text text-anchor="middle" x="882.83" y="-423.8" font-family="Times New Roman,serif" font-size="14.00">objects</text>
<text text-anchor="middle" x="882.83" y="-407" font-family="Times New Roman,serif" font-size="14.00">[0..*]</text>
</g>
<!-- MenuSwing1873475245 -->
<g id="node9" class="node">
<title>MenuSwing1873475245</title>
<polygon fill="#ffffff" stroke="transparent" points="1043.5,-2039.8 814.5,-2039.8 814.5,-1893.8 1043.5,-1893.8 1043.5,-2039.8"/>
<text text-anchor="start" x="820" y="-2022.2" font-family="Times New Roman,serif" font-size="14.00">(C)MenuSwing</text>
<text text-anchor="start" x="820" y="-1998.2" font-family="Times New Roman,serif" font-size="14.00">&#45; &#160;&#160;engine: Engine [0..1]</text>
<text text-anchor="start" x="819.67" y="-1974.2" font-family="Times New Roman,serif" font-size="14.00">&#45; &#160;&#160;execute: CommandsExecution [0..1]</text>
<text text-anchor="start" x="820" y="-1950.2" font-family="Times New Roman,serif" font-size="14.00">&#45; &#160;&#160;loadGameButton: JButton [0..1]</text>
<text text-anchor="start" x="820" y="-1926.2" font-family="Times New Roman,serif" font-size="14.00">&#45; &#160;&#160;newGameButton: JButton [0..1]</text>
<text text-anchor="start" x="820" y="-1902.2" font-family="Times New Roman,serif" font-size="14.00">+ startMenu()</text>
<polygon fill="black" stroke="black" points="815,-2014.8 815,-2014.8 1044,-2014.8 1044,-2014.8 815,-2014.8"/>
<polygon fill="black" stroke="black" points="815,-1918.8 815,-1918.8 1044,-1918.8 1044,-1918.8 815,-1918.8"/>
<polygon fill="none" stroke="black" points="814.5,-1893.8 814.5,-2039.8 1043.5,-2039.8 1043.5,-1893.8 814.5,-1893.8"/>
</g>
<!-- MenuSwing1873475245&#45;&gt;Engine1526836320 -->
<g id="edge9" class="edge">
<title>MenuSwing1873475245&#45;&gt;Engine1526836320</title>
<path fill="none" stroke="black" d="M929,-1893.41C929,-1858.54 929,-1815.45 929,-1774.4"/>
<polygon fill="black" stroke="black" points="932.5,-1774.29 929,-1764.29 925.5,-1774.29 932.5,-1774.29"/>
<text text-anchor="middle" x="947.66" y="-1803.2" font-family="Times New Roman,serif" font-size="14.00">engine</text>
<text text-anchor="middle" x="947.66" y="-1786.4" font-family="Times New Roman,serif" font-size="14.00">[0..1]</text>
</g>
</g>
</svg>
